# AST/ASF file generated using VICON BodyLanguage
# -----------------------------------------------
:version 1.10
:name VICON
:units
  mass 1.0
  length 0.45
  angle deg
:documentation
   .ast/.asf automatically generated from VICON data using
   VICON BodyBuilder and BodyLanguage model FoxedUp or BRILLIANT.MOD
:root
   order TX TY TZ RX RY RZ
   axis XYZ
   position 0 0 0  
   orientation 0 0 0 
:bonedata
  begin
     id 1 
     name lhipjoint
     direction 0.602128 -0.715006 0.355257 
     length 2.21237 
     axis 0 0 0  XYZ
  end
  begin
     id 2 
     name lfemur
     direction 0.34202 -0.939693 0  
     length 6.71649  
     axis 0 0 20  XYZ
    dof rx ry rz
    limits (-160.0 20.0)
           (-70.0 70.0)
           (-60.0 70.0)
  end
  begin
     id 3 
     name ltibia
     direction 0.34202 -0.939693 0   
     length 6.97123   
     axis 0 0 20   XYZ
    dof rx
    limits (-10.0 170.0)
  end
  begin
     id 4 
     name lfoot
     direction 0.0655697 -0.180151 0.981451   
     length 1.80924   
     axis -90 7.62852e-016 20   XYZ
    dof rx rz
    limits (-45.0 90.0)
           (-70.0 20.0)
  end
  begin
     id 5 
     name ltoes
     direction 1.53545e-011 -4.21827e-011 1   
     length 0.916331   
     axis -90 7.62852e-016 20   XYZ
    dof rx
    limits (-90.0 20.0)
  end
  begin
     id 6 
     name rhipjoint
     direction -0.625414 -0.698792 0.347201   
     length 2.2637  
     axis 0 0 0  XYZ 
  end
  begin
     id 7 
     name rfemur
     direction -0.34202 -0.939693 0   
     length 7.07595   
     axis 0 0 -20   XYZ
    dof rx ry rz
    limits (-160.0 20.0)
           (-70.0 70.0)
           (-70.0 60.0)
  end
  begin
     id 8 
     name rtibia
     direction -0.34202 -0.939693 0   
     length 7.22924   
     axis 0 0 -20   XYZ
    dof rx
    limits (-10.0 170.0)
 end
 begin
     id 9 
     name rfoot
     direction -0.0766747 -0.210662 0.974547   
     length 1.98482  
     axis -90 -7.62852e-016 -20   XYZ
    dof rx rz
    limits (-45.0 90.0)
           (-20.0 70.0)
  end
  begin
     id 10 
     name rtoes
     direction -1.53532e-011 -4.21867e-011 1   
     length 0.999842   
     axis -90 -7.62852e-016 -20   XYZ
    dof rx
    limits (-90.0 20.0)
  end
  begin
     id 11 
     name lowerback
     direction -0.0224668 0.997354 -0.0691422   
     length 2.09945   
     axis 0 0 0   XYZ
    dof rx ry rz
    limits (-20.0 45.0)
           (-30.0 30.0)
           (-30.0 30.0)
  end
  begin
     id 12 
     name upperback
     direction 0.0134698 0.998451 -0.0539888   
     length 2.09758   
     axis 0 0 0   XYZ
    dof rx ry rz
    limits (-20.0 45.0)
           (-30.0 30.0)
           (-30.0 30.0)
  end
  begin
     id 13 
     name thorax
     direction 0.0241905 0.99948 -0.0213333   
     length 2.10428   
     axis 0 0 0   XYZ
    dof rx ry rz
    limits (-20.0 45.0)
           (-30.0 30.0)
           (-30.0 30.0)
  end
  begin
     id 14 
     name lowerneck
     direction -0.00866847 0.995978 0.0891737   
     length 1.3959   
     axis 0 0 0   XYZ
    dof rx ry rz
    limits (-20.0 45.0)
           (-30.0 30.0)
           (-30.0 30.0)
  end
  begin
     id 15 
     name upperneck
     direction 0.0680679 0.992203 0.104404   
     length 1.39452   
     axis 0 0 0   XYZ
    dof rx ry rz
    limits (-20.0 45.0)
           (-30.0 30.0)
           (-30.0 30.0)
  end
  begin
     id 16
     name head
     direction 0.0242216 0.999358 0.0264054  
     length 1.40433  
     axis 0 0 0   XYZ
    dof rx ry rz
    limits (-20.0 45.0)
           (-30.0 30.0)
           (-30.0 30.0)
  end
  begin
     id 17 
     name lclavicle
     direction 0.929368 0.362991 -0.0671771  
     length 3.04887  
     axis 0 0 0   XYZ
    dof ry rz
    limits (-20.0 10.0)
           (0.0 20.0)
  end
  begin
     id 18 
     name lhumerus
     direction 1 -4.48967e-011 -7.13741e-028   
     length 4.77195   
     axis -180 -30 -90   XYZ
    dof rx ry rz
    limits (-60.0 90.0)
           (-90.0 90.0)
           (-90.0 90.0)
  end
  begin
     id 19
     name lradius
     direction 1 -4.48977e-011 3.60404e-027   
     length 2.98444   
     axis -180 -30 -90   XYZ
    dof rx
    limits (-10.0 170.0)
  end
  begin
     id 20
     name lwrist
     direction 1 -4.48997e-011 7.54877e-027   
     length 1.49222   
     axis -7.18178e-015 90 90   XYZ
    dof ry
    limits (-180.0 0.0)
 end
  begin
     id 21 
     name lhand
     direction 1 -4.489e-011 1.51105e-026   
     length 0.992285   
     axis -9.63605e-015 90 90   XYZ
    dof rx rz
    limits (-90.0 90.0)
           (-45.0 45.0)
  end
  begin
     id 22 
     name lfingers
     direction 1 -4.48998e-011 3.01948e-026   
     length 0.800006   
     axis -1.92718e-014 90 90   XYZ
    dof rx
    limits (0.0 90.0)
  end
  begin
     id 23
     name lthumb
     direction 0.707107 -6.34881e-011 0.707107   
     length 1.14865   
     axis -90 45 -3.53137e-014   XYZ
    dof rx rz
    limits (-45.0 45.0)
           (-45.0 45.0)
  end
  begin
     id 24 
     name rclavicle
     direction -0.945672 0.324529 0.0196374   
     length 3.4236  
     axis 0 0 0   XYZ 
    dof ry rz
    limits (-10.0 20.0)
           (-20.0 0.0)
  end
  begin
     id 25 
     name rhumerus
     direction -1 -4.4896e-011 1.02757e-029  
     length 4.62052   
     axis -180 30 90   XYZ
    dof rx ry rz
    limits (-90.0 60.0)
           (-90.0 90.0)
           (-90.0 90.0)
  end
  begin
     id 26 
     name rradius
     direction -1 -4.48982e-011 3.85962e-027   
     length 2.95332   
     axis -180 30 90   XYZ
    dof rx
    limits (-10.0 170.0)
  end
  begin
     id 27 
     name rwrist
     direction -1 -4.48961e-011 7.55118e-027   
     length 1.47666   
     axis -7.18178e-015 -90 -90   XYZ
    dof ry
    limits (-180.0 0.0)
  end
  begin
     id 28
     name rhand
     direction -1 -4.48984e-011 1.50994e-026   
     length 0.990956   
     axis -9.63605e-015 -90 -90   XYZ
    dof rx rz
    limits (-90.0 90.0)
           (-45.0 45.0)
  end
  begin
     id 29
     name rfingers
     direction -1 -4.4892e-011 3.02158e-026   
     length 0.798934   
     axis -1.92718e-014 -90 -90   XYZ
    dof rx
    limits (0.0 90.0)
  end
  begin
     id 30
     name rthumb
     direction -0.707107 -6.34916e-011 0.707107   
     length 1.14711   
     axis -90 -45 3.53137e-014   XYZ
    dof rx rz
    limits (-45.0 45.0)
           (-45.0 45.0)
  end
:hierarchy
  begin
    root lhipjoint rhipjoint lowerback
    lhipjoint lfemur
    lfemur ltibia
    ltibia lfoot
    lfoot ltoes
    rhipjoint rfemur
    rfemur rtibia
    rtibia rfoot
    rfoot rtoes
    lowerback upperback
    upperback thorax
    thorax lowerneck lclavicle rclavicle
    lowerneck upperneck
    upperneck head
    lclavicle lhumerus
    lhumerus lradius
    lradius lwrist
    lwrist lhand lthumb
    lhand lfingers
    rclavicle rhumerus
    rhumerus rradius
    rradius rwrist
    rwrist rhand rthumb
    rhand rfingers
  end

#!OML:ASF H:\ManfredObstacles\Project 1\Capture day 1\Session 1\Male.ASF
:FULLY-SPECIFIED
:DEGREES
394
root 4.86177 16.2251 2.62695 -156.768 -8.04049 -177.428
lowerback 6.52358 -0.235462 -3.60384
upperback 6.40982 -1.00301 -0.558393
thorax 3.01537 -0.857062 1.46681
lowerneck 7.36813 -3.25247 -4.97969
upperneck -17.8091 -3.37884 17.3829
head -6.14288 -3.24545 6.79382
rclavicle 1.82882e-014 4.69132e-014
rhumerus -26.7897 -12.1048 -86.4077
rradius 43.0164
rwrist 18.9473
rhand 1.2367 -2.46911
rfingers 7.12502
rthumb 26.7744 -30.5942
lclavicle 1.82882e-014 4.69132e-014
lhumerus -19.1578 2.21651 81.5989
lradius 24.2751
lwrist -21.0209
lhand -17.193 9.08041
lfingers 7.12502
lthumb 9.04911 38.8663
rfemur -36.841 0.226089 25.0409
rtibia 51.0098
rfoot -18.8983 15.1794
rtoes 19.4646
lfemur -48.1383 -9.29806 -13.1854
ltibia 30.2783
lfoot 1.52391 -9.11829
ltoes 13.2125
395
root 4.80064 16.2749 2.46682 -157.371 -7.50997 -177.325
lowerback 5.76831 -0.392392 -3.83906
upperback 6.30938 -1.15882 -0.508129
thorax 3.34657 -0.936883 1.64281
lowerneck 6.61699 -3.28085 -4.71579
upperneck -17.0907 -3.5268 16.6475
head -5.79072 -3.19951 6.43832
rclavicle 3.97569e-015 2.78299e-014
rhumerus -26.9927 -11.6045 -86.4532
rradius 42.8349
rwrist 19.0375
rhand 1.39138 -2.6068
rfingers 7.12502
rthumb 26.9224 -30.7092
lclavicle 3.97569e-015 2.78299e-014
lhumerus -19.6876 2.45658 81.5946
lradius 24.5203
lwrist -20.7767
lhand -17.0231 9.04205
lfingers 7.12502
lthumb 9.21306 38.8208
rfemur -36.7873 -0.0693656 24.9017
rtibia 52.4832
rfoot -17.6968 14.7549
rtoes 17.4876
lfemur -46.1908 -8.84288 -13.7301
ltibia 29.3208
lfoot 1.38119 -9.33896
ltoes 13.673
396
root 4.73987 16.3242 2.30674 -158.084 -7.16097 -177.112
lowerback 5.08156 -0.540023 -3.77949
upperback 6.19534 -1.29381 -0.405299
thorax 3.62039 -0.993635 1.70679
lowerneck 8.28746 -2.59253 -5.69737
upperneck -18.7745 -2.52059 17.5398
head -6.70396 -2.89665 7.02364
rclavicle 7.15625e-015 -1.59028e-014
rhumerus -27.2939 -11.3706 -86.3444
rradius 42.6051
rwrist 19.2153
rhand 1.66027 -2.77455
rfingers 7.12502
rthumb 27.1796 -30.837
lclavicle 7.15625e-015 -1.59028e-014
lhumerus -20.2346 2.66316 81.6806
lradius 24.9018
lwrist -20.794
lhand -16.7083 9.13763
lfingers 7.12502
lthumb 9.5168 38.9027
rfemur -36.7051 -0.48862 24.9832
rtibia 54.0062
rfoot -17.3382 13.8147
rtoes 16.3871
lfemur -44.1453 -8.25816 -14.2146
ltibia 28.4003
lfoot 1.22357 -9.81134
ltoes 14.0502
397
root 4.68376 16.3722 2.14733 -158.789 -6.79547 -177.025
lowerback 4.3815 -0.584094 -3.65824
upperback 6.10718 -1.29222 -0.429604
thorax 3.91697 -0.979452 1.60088
lowerneck 8.26564 -2.6199 -5.85326
upperneck -18.8417 -2.59306 17.5117
head -6.70847 -2.92224 7.04883
rclavicle -3.89618e-014 -1.82882e-014
rhumerus -27.5679 -11.7227 -86.2334
rradius 42.1733
rwrist 19.5951
rhand 1.59763 -2.76572
rfingers 7.12502
rthumb 27.1197 -30.8375
lclavicle -3.89618e-014 -1.82882e-014
lhumerus -20.6254 2.26663 81.8173
lradius 25.2738
lwrist -20.6665
lhand -16.9306 8.99844
lfingers 7.12502
lthumb 9.30232 38.7732
rfemur -36.7032 -0.936133 24.9572
rtibia 55.4351
rfoot -17.8055 12.0941
rtoes 16.4579
lfemur -42.1248 -7.42042 -14.9341
ltibia 27.5594
lfoot 1.25079 -10.5409
ltoes 14.362
398
root 4.63358 16.4127 1.99192 -159.437 -6.40236 -177.156
lowerback 3.71508 -0.63737 -3.67193
upperback 5.98397 -1.3051 -0.582899
thorax 4.16031 -0.973755 1.43847
lowerneck 7.72265 -2.91875 -5.19064
upperneck -18.3296 -3.0401 16.826
head -6.42082 -3.06885 6.66914
rclavicle -1.43125e-014 -2.14687e-014
rhumerus -27.9382 -12.2199 -86.2015
rradius 41.8206
rwrist 19.98
rhand 1.38158 -2.74194
rfingers 7.12502
rthumb 26.913 -30.8458
lclavicle -1.43125e-014 -2.14687e-014
lhumerus -20.9282 1.74606 81.8371
lradius 25.4519
lwrist -20.6226
lhand -17.4848 8.50372
lfingers 7.12502
lthumb 8.76755 38.3016
rfemur -36.8519 -1.35592 24.6736
rtibia 56.6994
rfoot -18.5017 9.85745
rtoes 15.2197
lfemur -40.2175 -6.55842 -15.8475
ltibia 26.787
lfoot 1.39051 -11.2961
ltoes 15.0125
399
root 4.58443 16.4491 1.84275 -160.076 -6.14607 -177.244
lowerback 3.10121 -0.863053 -3.7565
upperback 5.79347 -1.54756 -0.629029
thorax 4.32182 -1.08271 1.42646
lowerneck 7.40018 -3.01505 -4.82312
upperneck -17.7537 -3.22859 16.2177
head -6.18215 -3.07818 6.36363
rclavicle -1.66979e-014 2.94201e-014
rhumerus -28.4314 -12.0679 -86.2167
rradius 41.5634
rwrist 19.9462
rhand 1.33013 -2.79001
rfingers 7.12502
rthumb 26.8638 -30.9014
lclavicle -1.66979e-014 2.94201e-014
lhumerus -21.2981 1.79637 81.7591
lradius 25.4251
lwrist -20.7831
lhand -17.6804 8.20969
lfingers 7.12502
lthumb 8.57882 38.0154
rfemur -37.0508 -1.83216 24.4479
rtibia 57.6894
rfoot -19.2762 8.02272
rtoes 13.9708
lfemur -38.4451 -5.91226 -16.5567
ltibia 26.1292
lfoot 1.28901 -11.9194
ltoes 15.3336
400
root 4.53765 16.4808 1.70096 -160.738 -5.9179 -177.071
lowerback 2.53672 -1.10394 -3.71347
upperback 5.64678 -1.81923 -0.52036
thorax 4.50483 -1.20654 1.49942
lowerneck 6.80567 -3.0422 -4.63758
upperneck -16.9713 -3.34938 15.6729
head -5.83472 -3.03324 6.0925
rclavicle -3.18055e-015 -1.19271e-014
rhumerus -29.5563 -12.2302 -86.1105
rradius 42.8402
rwrist 20.1147
rhand 2.27716 -3.44286
rfingers 7.12502
rthumb 27.7696 -31.4116
lclavicle -3.18055e-015 -1.19271e-014
lhumerus -21.4719 2.12044 81.7223
lradius 25.3211
lwrist -21.0481
lhand -17.3553 8.40383
lfingers 7.12502
lthumb 8.89254 38.1964
rfemur -37.3004 -2.1965 24.5029
rtibia 58.3256
rfoot -19.8434 6.91762
rtoes 14.5868
lfemur -36.8171 -5.31071 -16.8661
ltibia 25.6539
lfoot 1.0281 -12.4204
ltoes 15.5685
401
root 4.4891 16.5043 1.55924 -161.405 -5.73571 -176.718
lowerback 1.87013 -1.23481 -3.26376
upperback 5.65453 -1.95442 -0.435677
thorax 4.88465 -1.254 1.31331
lowerneck 5.88418 -3.14072 -4.49325
upperneck -16.2258 -3.56556 15.3289
head -5.42799 -3.05417 5.89641
rclavicle 2.38542e-015 3.02153e-014
rhumerus -29.6996 -12.5128 -85.9898
rradius 42.3496
rwrist 20.1823
rhand 2.32671 -3.58051
rfingers 7.12502
rthumb 27.817 -31.5416
lclavicle 2.38542e-015 3.02153e-014
lhumerus -21.2183 2.06848 81.7561
lradius 25.1955
lwrist -21.1477
lhand -16.8511 8.78034
lfingers 7.12502
lthumb 9.37898 38.5517
rfemur -37.5706 -2.60618 24.7553
rtibia 58.5295
rfoot -20.3057 6.39095
rtoes 14.3215
lfemur -35.3359 -4.81844 -16.8815
ltibia 25.4366
lfoot 0.768817 -12.8665
ltoes 16.4358
402
root 4.44957 16.5173 1.40457 -161.893 -5.29203 -176.333
lowerback 0.792037 -1.18841 -2.87782
upperback 5.77638 -1.84832 -0.342645
thorax 5.61217 -1.18964 1.16331
lowerneck 4.95472 -4.55928 -4.68723
upperneck -15.4032 -3.58919 15.4179
head -4.97685 -2.08051 5.80715
rclavicle 1.15295e-014 3.10104e-014
rhumerus -29.2509 -13.035 -85.7492
rradius 41.0238
rwrist 20.439
rhand 1.88292 -3.31042
rfingers 7.12502
rthumb 27.3926 -31.3394
lclavicle 1.15295e-014 3.10104e-014
lhumerus -20.6045 1.97415 81.9368
lradius 25.0039
lwrist -21.2337
lhand -16.5758 8.92626
lfingers 7.12502
lthumb 9.64465 38.6855
rfemur -38.0043 -2.66497 25.0082
rtibia 58.3755
rfoot -20.8565 6.01569
rtoes 10.5004
lfemur -34.0812 -4.29731 -16.7836
ltibia 25.4109
lfoot 0.281978 -13.1216
ltoes 17.1215
403
root 4.40225 16.526 1.25883 -162.688 -4.97554 -175.618
lowerback 0.10287 -0.992419 -1.82228
upperback 6.05397 -1.61131 -0.204023
thorax 6.26254 -1.03442 0.704662
lowerneck 4.20047 -3.49727 -4.95232
upperneck -15.6483 -4.18365 15.2594
head -4.87545 -3.25899 5.89256
rclavicle -1.66979e-014 6.36111e-015
rhumerus -28.8553 -14.0942 -85.3463
rradius 40.1053
rwrist 20.7459
rhand 1.56934 -3.07771
rfingers 7.12502
rthumb 27.0926 -31.1537
lclavicle -1.66979e-014 6.36111e-015
lhumerus -19.6999 1.80534 82.262
lradius 24.7814
lwrist -21.5465
lhand -16.4047 8.89648
lfingers 7.12502
lthumb 9.80971 38.648
rfemur -38.0428 -2.7927 25.5977
rtibia 57.8493
rfoot -21.1721 6.14886
rtoes 7.85501
lfemur -32.6373 -3.62619 -16.4235
ltibia 25.5767
lfoot -0.345022 -13.6105
ltoes 17.2464
